<?xml version="1.0" encoding="iso-8859-1"?>
<!-- Uploaded to: SVG Repo, www.svgrepo.com, Generator: SVG Repo Mixer Tools -->
<svg height="800px" width="800px" version="1.1" id="Layer_1" xmlns="http://www.w3.org/2000/svg" xmlns:xlink="http://www.w3.org/1999/xlink" 
	 viewBox="0 0 507.2 507.2" xml:space="preserve">
<g>
	<path style="fill:#676767;" d="M139.2,482c0,12,8.8,20,20,20s20-8,20-20H139.2z"/>
	<path style="fill:#676767;" d="M331.6,482c0,12,8.8,20,20,20s20-8,20-20H331.6z"/>
	<path style="fill:#676767;" d="M227.6,134.8V22h52v112.8l16-0.8V14.8c0-4.4,0.4-8.8-4-8.8h-72c-4.4,0-8,4.4-8,8.8V134L227.6,134.8z
		"/>
</g>
<path style="fill:#33A5D2;" d="M386.4,136l-28,62c-4,8.8-14,16-23.6,16H175.6c-9.6,0-20.4-7.6-24.4-16l-28.8-61.6
	c-8.8,5.6-14.8,15.2-14.8,26.8v288c0,17.6,14.4,31.2,32,31.2h232c17.6,0,28-13.6,28-31.2v-288C399.6,151.6,395.6,141.6,386.4,136z"
	/>
<path style="fill:#73BADD;" d="M154.4,196.4c3.2,7.2,12.8,13.6,20.8,13.6h159.6c8,0,17.6-6.4,20.8-13.6l28.8-62V134
	c-4-2-8.8-3.6-13.6-3.6h-232c-4.8,0-9.6,1.6-14,3.6v0.4L154.4,196.4z"/>
<g>
	<path style="fill:#CDEEF9;" d="M287.6,210v16.8c0,4.4,0.4,7.2-4,7.2h-56c-4.4,0-12-2.8-12-7.2V210H287.6z"/>
	<path style="fill:#CDEEF9;" d="M363.6,274c4.4,0,8,3.6,8,8s-3.6,8-8,8h-216c-4.4,0-8-3.6-8-8s3.6-8,8-8H363.6z"/>
	<path style="fill:#CDEEF9;" d="M363.6,346c4.4,0,8,3.6,8,8s-3.6,8-8,8h-216c-4.4,0-8-3.6-8-8s3.6-8,8-8H363.6z"/>
	<path style="fill:#CDEEF9;" d="M147.6,414c-4.4,0-8,3.6-8,8s3.6,8,8,8h216c4.4,0,8-3.6,8-8s-3.6-8-8-8H147.6z"/>
</g>
<path d="M369.6,488h-232c-20,0-36-16-36-36V164c0-20,16-36,36-36h232c20,0,36,16,36,36v288C405.6,472,389.6,488,369.6,488z
	 M137.6,136c-15.6,0-28,12.4-28,28v288c0,15.6,12.4,28,28,28h232c15.6,0,28-12.4,28-28V164c0-15.6-12.4-28-28-28H137.6z"/>
<path d="M159.2,507.2c-12.4,0-22.8-9.2-24-21.6c-0.4-2,1.2-4,3.6-4.4c2.4,0,4,1.2,4.4,3.6c0.8,8.4,7.6,14.4,16,14.4s15.2-6,16-14.4
	c0.4-2,2-3.6,4.4-3.6c2,0.4,4,2,3.6,4.4C182,497.6,171.6,507.2,159.2,507.2z"/>
<path d="M351.6,507.2c-12.4,0-22.8-9.2-24-21.6c-0.4-2,1.2-4,3.6-4.4c2.4,0,4,1.2,4.4,3.6c0.8,8.4,7.6,14.4,16,14.4
	c8,0,14.4-5.6,16-13.2c0.4-2,2.4-3.6,4.8-3.2c2,0.4,3.6,2.4,3.2,4.8C373.6,498.8,363.6,507.2,351.6,507.2z"/>
<path d="M293.6,134c-2.4,0-4-1.6-4-4V10.8c0-1.2-2.8-2.8-6-2.8h-64c-3.2,0-6,1.6-6,2.8V130c0,2.4-1.6,4-4,4s-4-1.6-4-4V10.8
	c0-6.8,7.2-10.8,14-10.8h64c6.8,0,14,4,14,10.8V130C297.6,132.4,296,134,293.6,134z"/>
<path d="M277.6,136h-52c-2.4,0-4-1.6-4-4V20c0-2.4,1.6-4,4-4h52c2.4,0,4,1.6,4,4v112C281.6,134.4,280,136,277.6,136z M229.6,128h44
	V24h-44V128z"/>
<path d="M335.2,216H175.6c-10,0-22-7.6-26.4-17.2l-27.2-58c-0.8-2,0-4.4,2-5.2c2-0.8,4.4,0,5.2,2l27.2,58c3.2,6.8,12,12.8,19.2,12.8
	h159.6c7.2,0,16-6,19.2-12.8l27.6-59.2c0.8-2,3.2-2.8,5.2-2s2.8,3.2,2,5.2l-27.6,59.2C357.2,208.4,345.2,216,335.2,216z"/>
<path d="M278,240h-56.8c-6.8,0-11.6-6.8-11.6-13.2V214c0-2.4,1.6-4,4-4s4,1.6,4,4v12.8c0,2.4,2,5.2,3.6,5.2H278c2,0,3.6-2.4,3.6-5.2
	V214c0-2.4,1.6-4,4-4s4,1.6,4,4v12.8C289.6,233.2,284.8,240,278,240z"/>
<path d="M363.6,296h-216c-6.8,0-12-5.2-12-12s5.2-12,12-12h188c2.4,0,4,1.6,4,4s-1.6,4-4,4h-188c-2,0-4,2-4,4s2,4,4,4h216
	c2,0,4-2,4-4.4s-2-4.4-4-4.4c-2.4,0-4-1.6-4-4s1.6-4,4-4c6.4,0,12,5.6,12,12.4S370,296,363.6,296z"/>
<path d="M363.6,368h-216c-6.8,0-12-5.2-12-12s5.2-12,12-12h188c2.4,0,4,1.6,4,4s-1.6,4-4,4h-188c-2,0-4,2-4,4s2,4,4,4h216
	c2,0,4-2,4-4.4s-2-4.4-4-4.4c-2.4,0-4-1.6-4-4s1.6-4,4-4c6.4,0,12,5.6,12,12.4S370,368,363.6,368z"/>
<path d="M363.6,436h-216c-6.8,0-12-5.2-12-12s5.2-12,12-12h188c2.4,0,4,1.6,4,4s-1.6,4-4,4h-188c-2,0-4,2-4,4s2,4,4,4h216
	c2,0,4-2,4-4.4s-2-4.4-4-4.4c-2.4,0-4-1.6-4-4s1.6-4,4-4c6.4,0,12,5.6,12,12.4S370,436,363.6,436z"/>
</svg>